<?xml version="1.0" encoding="UTF-8"?>
<svg viewBox="0 0 261 68" version="1.1" xmlns="http://www.w3.org/2000/svg" xmlns:xlink="http://www.w3.org/1999/xlink">
  <g stroke="none" stroke-width="1" fill="none" fill-rule="evenodd">
    <g id="logo-full" fill="#FFFFFF" fill-rule="nonzero">
      <rect id="Rectangle-path" x="120" y="27" width="5.88032409" height="25.9175828"></rect>
      <path d="M176.816737,32.1816928 C176.993989,31.5304517 177.292899,30.90934 177.701387,30.3434586 L177.996271,30.0244262 L178.3085,29.6598178 C179.558096,28.3902451 181.176327,27.4401457 182.991944,26.9100625 C185.232973,26.2800219 187.577091,25.9772013 189.93038,26.0137335 C193.166375,25.9018334 196.385455,26.4750796 199.314614,27.6848555 C201.731502,28.8090648 202.934164,30.9967154 202.9226,34.2478072 L202.9226,46.5685339 C202.856898,47.2854512 203.031737,48.0035642 203.425637,48.6346483 C203.784825,49.0582691 204.369263,49.2883192 204.969439,49.242329 C205.194668,49.2560021 205.420707,49.2560021 205.645936,49.242329 L206.704048,49.242329 L206.704048,52.6909171 C205.958166,52.8276453 205.351053,52.9187974 204.969439,52.9795655 C204.533211,53.0496459 204.093215,53.1003508 203.651136,53.1314857 L203.165446,53.1314857 C201.808932,53.2183592 200.458537,52.9026157 199.33196,52.2351566 C198.371245,51.444287 197.809512,50.3510055 197.770812,49.196753 C196.187658,50.4909637 194.347618,51.5207024 192.341486,52.2351566 C190.343456,52.9275439 188.210825,53.2732411 186.062202,53.2530218 C183.195523,53.3791309 180.366373,52.6390028 178.048309,51.1565233 C176.070448,49.8480567 174.939073,47.7813676 175.012744,45.6114367 C174.828622,42.8666755 176.654025,40.3221466 179.557419,39.2763652 C182.722869,38.0561327 186.078861,37.2573153 189.514074,36.9064104 C190.589531,36.7848743 191.664989,36.6785301 192.740446,36.60257 L195.793358,36.3291137 L196.573932,36.3291137 L197.285122,36.3291137 L197.285122,36.0252734 C197.263094,35.9147004 197.263094,35.8016219 197.285122,35.691049 L197.285122,35.0985603 C197.424514,33.6636418 196.781366,32.2554401 195.550513,31.3005558 C193.856899,30.4215396 191.89179,30.0284538 189.93038,30.1763464 C188.004412,30.0563236 186.081916,30.4481412 184.414324,31.3005558 C183.142618,32.1691563 182.379462,33.4892185 182.332793,34.901064 L176.279008,34.901064 C176.353889,33.9811302 176.534035,33.0701047 176.816737,32.1816928 Z M190.936453,40.4309586 C189.288575,40.6436468 187.952926,40.8563351 186.91216,41.0842154 L185.767319,41.3424797 L184.795938,41.615936 C183.780241,41.9112157 182.870998,42.4351181 182.159332,43.1351378 C181.56752,43.7333999 181.246615,44.5008967 181.257335,45.2924044 C181.196377,46.4531797 181.809924,47.5621913 182.887868,48.2396559 C184.251435,48.9989577 185.854513,49.3605953 187.467235,49.2727131 C189.934925,49.3447017 192.364823,48.7275385 194.405671,47.510439 C196.135573,46.6194197 197.222659,45.013486 197.285122,43.2566739 L197.285122,39.6713577 C194.683208,39.960006 192.584331,40.2182703 190.936453,40.4309586 Z" id="Shape"></path>
      <path d="M217.967055,26.6840612 L217.967055,30.9530182 C218.862875,29.4802691 220.125645,28.2029675 221.661771,27.2157818 C223.009833,26.4090095 224.608505,25.9847228 226.241139,26.0004204 C226.640099,26.0004204 227.056405,26.0004204 227.455365,26.0004204 C227.886064,26.0306422 228.314567,26.0813571 228.738976,26.1523405 L228.738976,30.9074422 L228.01044,30.8314821 L226.90029,30.8314821 C223.170881,30.8314821 220.742429,31.7126191 219.666971,33.4748932 C218.50008,35.3958737 217.90358,37.5430409 217.932362,39.7188126 L217.932362,52.5560679 L212,52.5560679 L212,26.6840612 L217.967055,26.6840612 Z" id="Shape"></path>
      <polygon id="Shape" points="238.81094 17 238.81094 37.0382718 252.687811 26.5405873 260.40682 26.5405873 247.362562 36.0811746 260.753742 52.4429781 253.589807 52.4429781 243.407653 39.2259224 238.741555 42.5833584 238.741555 52.4429781 233 52.4429781 233 17"></polygon>
      <path d="M25.41,54.71 C16.4863198,54.7207338 7.7190178,52.3676051 1.0658141e-14,47.89 L1.0658141e-14,51 L29.76,68 L47.11,58.09 C42.1056383,57.5222926 37.2146356,56.2076882 32.6,54.19 C30.2183622,54.5305122 27.81585,54.7042683 25.41,54.71 Z" id="Shape"></path>
      <path d="M25.73,50.5 C13.36281,42.6581633 5.05500408,29.7889223 3,15.29 L0,17 L0,43 C7.55315766,47.9393459 16.3851929,50.563583 25.41,50.55 L25.73,50.5 Z" id="Shape"></path>
      <path d="M33.21,49.85 C43.3203425,48.1358621 52.5767982,43.1172594 59.53,35.58 L59.53,17 L29.76,0 L7,13 C8.66202962,29.0327034 18.610241,43.0194103 33.21,49.85 Z" id="Shape"></path>
      <path d="M53,54.28 L53.82,54.28 L59.53,51 L59.53,41.5 C53.9990798,46.5517318 47.4132113,50.3092294 40.25,52.5 C44.3971807,53.6803526 48.6881165,54.2794009 53,54.28 Z" id="Shape"></path>
      <path d="M168.443259,22.3985188 C167.548958,20.9889947 166.259516,19.8021667 164.696504,18.9499307 C163.306815,18.1709496 161.747343,17.653596 160.117137,17.4307289 C157.718032,17.1120133 155.292678,16.9697244 152.866471,17.0053524 L135,17.0053524 L135,52.4331384 L141.487437,52.4331384 L141.487437,37.5905368 L141.487437,33.0329314 L141.487437,21.4718057 L152.814433,21.4718057 C155.24447,21.4314343 157.661917,21.7868839 159.943676,22.5200549 C161.990514,23.2188878 163.031279,24.7988576 163.031279,27.2599646 C163.031279,30.0097198 161.869092,31.6656498 159.562062,32.2429465 C156.980956,32.8359474 154.320484,33.1220987 151.652245,33.0936995 L146.916763,33.0936995 L146.916763,37.5905368 L153.751122,37.5905368 C155.485731,37.5905368 156.977494,37.5905368 158.330489,37.4234246 C159.450627,37.3407335 160.559682,37.1678264 161.643592,36.906896 C164.037149,36.3178257 166.137355,35.0452183 167.610647,33.2911957 C169.061741,31.4786571 169.80967,29.3058103 169.744216,27.0928524 C169.776766,25.4563161 169.3288,23.83989 168.443259,22.3985188 Z" id="Shape"></path>
      <path d="M111.610647,36.6651301 C110.084791,34.9679386 107.942864,33.7780578 105.539516,33.2925021 C107.356498,32.7911627 108.966388,31.83534 110.170922,30.5427468 C111.229887,29.2485673 111.766928,27.682515 111.697377,26.0914856 C111.720018,24.6901889 111.325447,23.3078995 110.552535,22.0807928 C109.715079,20.7986576 108.52186,19.7222639 107.083318,18.9512371 C105.807249,18.194577 104.36623,17.6773348 102.850872,17.4320353 C100.621387,17.1087913 98.3626037,16.9663956 96.1032435,17.0066588 L79,17.0066588 L79,21.5642642 L95.9297826,21.5642642 C98.3260014,21.405707 100.725954,21.8260915 102.868218,22.7796256 C104.343489,23.7222727 105.146626,25.2732157 104.984441,26.8662785 C105.111405,28.3473255 104.340788,29.7779247 102.954949,30.6338989 C100.968338,31.5537679 98.7258641,31.9644701 96.4848575,31.8188763 L79,31.8188763 L79,52.4344448 L96.6756645,52.4344448 C99.1548296,52.4882992 101.634359,52.3408124 104.082444,51.9938763 C105.701077,51.7336776 107.252552,51.2189769 108.661812,50.4746745 C110.244298,49.62357 111.537949,48.4171315 112.408567,46.9805103 C113.289162,45.5101519 113.736356,43.8704019 113.709524,42.2102167 C113.736569,40.2084371 112.997681,38.2563465 111.610647,36.6651301 Z M103.6141,46.9501263 C101.207618,47.6425738 98.6882265,47.9863818 96.1552818,47.9679915 L85.5047833,47.9679915 L85.5047833,36.1941775 L96.6756645,36.1941775 C99.123882,36.1628766 101.556097,36.544555 103.839599,37.3183869 C106.036298,38.1086265 107.362625,40.0840033 107.083318,42.1494486 C107.346534,44.2624001 105.907179,46.2541681 103.6141,46.9501263 Z" id="Shape"></path>
      <polygon id="Shape" points="126 22.2 126 18.728 122.992 17 120 18.728 120 22.2 122.992 23.928"></polygon>
    </g>
  </g>
</svg>
