
<svg width="60px" height="68px" viewBox="0 0 60 68" version="1.1" xmlns="http://www.w3.org/2000/svg" xmlns:xlink="http://www.w3.org/1999/xlink">
  <g id="页面1" stroke="none" stroke-width="1" fill="none" fill-rule="evenodd">
    <g id="未命名" fill="#FFFFFF" fill-rule="nonzero">
      <path d="M25.41,54.71 C16.4863198,54.7207338 7.7190178,52.3676051 1.0658141e-14,47.89 L1.0658141e-14,51 L29.76,68 L47.11,58.09 C42.1056383,57.5222926 37.2146356,56.2076882 32.6,54.19 C30.2183622,54.5305122 27.81585,54.7042683 25.41,54.71 Z" id="Shape"></path>
      <path d="M25.73,50.5 C13.36281,42.6581633 5.05500408,29.7889223 3,15.29 L0,17 L0,43 C7.55315766,47.9393459 16.3851929,50.563583 25.41,50.55 L25.73,50.5 Z" id="Shape"></path>
      <path d="M33.21,49.85 C43.3203425,48.1358621 52.5767982,43.1172594 59.53,35.58 L59.53,17 L29.76,0 L7,13 C8.66202962,29.0327034 18.610241,43.0194103 33.21,49.85 Z" id="Shape"></path>
      <path d="M53,54.28 L53.82,54.28 L59.53,51 L59.53,41.5 C53.9990798,46.5517318 47.4132113,50.3092294 40.25,52.5 C44.3971807,53.6803526 48.6881165,54.2794009 53,54.28 Z" id="Shape"></path>
    </g>
  </g>
</svg>
